<svg width="28" height="28" viewBox="0 0 28 28" fill="none" xmlns="http://www.w3.org/2000/svg">
<path d="M8.1665 25.6666C7.52484 25.6666 6.97534 25.4379 6.518 24.9806C6.06067 24.5233 5.83239 23.9741 5.83317 23.3333C5.83317 22.6916 6.06184 22.1421 6.51917 21.6848C6.9765 21.2274 7.52561 20.9991 8.1665 20.9999C8.80817 20.9999 9.35767 21.2286 9.815 21.6859C10.2723 22.1433 10.5006 22.6924 10.4998 23.3333C10.4998 23.9749 10.2712 24.5244 9.81384 24.9818C9.3565 25.4391 8.80739 25.6674 8.1665 25.6666ZM19.8332 25.6666C19.1915 25.6666 18.642 25.4379 18.1847 24.9806C17.7273 24.5233 17.4991 23.9741 17.4998 23.3333C17.4998 22.6916 17.7285 22.1421 18.1858 21.6848C18.6432 21.2274 19.1923 20.9991 19.8332 20.9999C20.4748 20.9999 21.0243 21.2286 21.4817 21.6859C21.939 22.1433 22.1673 22.6924 22.1665 23.3333C22.1665 23.9749 21.9378 24.5244 21.4805 24.9818C21.0232 25.4391 20.4741 25.6674 19.8332 25.6666ZM6.0665 4.66659H23.2748C23.7221 4.66659 24.0623 4.86609 24.2957 5.26509C24.529 5.66409 24.5387 6.06736 24.3248 6.47492L20.1832 13.9416C19.9693 14.3305 19.6823 14.6319 19.3222 14.8458C18.9621 15.0596 18.5685 15.1666 18.1415 15.1666H9.44984L8.1665 17.4999H22.1665V19.8333H8.1665C7.2915 19.8333 6.63039 19.449 6.18317 18.6806C5.73595 17.9121 5.7165 17.1491 6.12484 16.3916L7.69984 13.5333L3.49984 4.66659H1.1665V2.33325H4.95817L6.0665 4.66659Z" fill="#373737"/>
<circle cx="24" cy="3" r="3" fill="#DC0909"/>
</svg>
