<svg width="964" height="385" viewBox="0 0 964 385" fill="none" xmlns="http://www.w3.org/2000/svg">
<path d="M427.344 97.8608H443.587V138.2H494.741V97.8608H510.983V199.083H494.741V152.394H443.587V199.083H427.344V97.8608Z" fill="#7E062A"/>
<path d="M544.588 97.8608H560.831V159.211C560.621 162.657 561.119 166.109 562.293 169.356C563.467 172.603 565.293 175.575 567.658 178.089C570.024 180.603 572.878 182.607 576.046 183.977C579.215 185.346 582.63 186.053 586.081 186.053C589.532 186.053 592.947 185.346 596.116 183.977C599.284 182.607 602.139 180.603 604.504 178.089C606.869 175.575 608.695 172.603 609.869 169.356C611.043 166.109 611.541 162.657 611.331 159.211V97.8608H627.574V158.183C627.84 163.8 626.964 169.412 624.999 174.68C623.034 179.948 620.021 184.762 616.142 188.831C612.263 192.9 607.598 196.139 602.431 198.352C597.264 200.565 591.702 201.706 586.081 201.706C580.46 201.706 574.898 200.565 569.731 198.352C564.564 196.139 559.899 192.9 556.02 188.831C552.141 184.762 549.128 179.948 547.163 174.68C545.198 169.412 544.322 163.8 544.588 158.183V97.8608Z" fill="#7E062A"/>
<path d="M744.631 97.8608V200.577H739.124L677.514 130.73V199.27H661.272V96.5535H666.873L728.109 166.121V97.8608H744.631Z" fill="#7E062A"/>
<path d="M852.261 184.516V199.083H770.769V194.694L826.777 112.428H777.303V97.8608H851.981V102.717L795.972 184.89L852.261 184.516Z" fill="#7E062A"/>
<path d="M919.564 96.1799H914.056L869.437 198.896H886.799L893.894 182.088L899.868 168.081L916.857 126.154L933.473 168.081L939.26 182.088L946.541 198.896H963.904L919.564 96.1799Z" fill="#7E062A"/>
<path d="M483.259 219.907V288.82H479.525L438.266 242.131V288.073H427.344V218.786H431.171L472.338 265.475V219.72L483.259 219.907Z" fill="#F59115"/>
<path d="M533.853 218.786H530.212L500.341 287.7H511.916L516.77 276.401L520.598 267.063L532.079 239.049L543.281 267.063L547.202 276.401L552.056 287.7H563.724L533.853 218.786Z" fill="#F59115"/>
<path d="M588.928 229.711H566.151V219.907H622.72V229.711H599.85V287.699H588.928V229.711Z" fill="#F59115"/>
<path d="M638.402 219.907H649.23V261.46C649.057 263.792 649.367 266.134 650.139 268.34C650.912 270.546 652.132 272.569 653.722 274.283C655.313 275.996 657.239 277.362 659.381 278.297C661.524 279.232 663.835 279.714 666.173 279.714C668.51 279.714 670.822 279.232 672.964 278.297C675.106 277.362 677.032 275.996 678.623 274.283C680.213 272.569 681.433 270.546 682.206 268.34C682.979 266.134 683.288 263.792 683.115 261.46V220.374H694.037V260.713C694.037 268.143 691.086 275.268 685.834 280.522C680.583 285.775 673.46 288.727 666.032 288.727C658.605 288.727 651.482 285.775 646.231 280.522C640.979 275.268 638.028 268.143 638.028 260.713L638.402 219.907Z" fill="#F59115"/>
<path d="M751.259 259.779C755.096 258.393 758.411 255.855 760.75 252.512C763.09 249.169 764.339 245.184 764.327 241.104C764.315 238.178 763.693 235.288 762.5 232.618C761.307 229.947 759.57 227.555 757.399 225.595C755.229 223.635 752.673 222.149 749.896 221.234C747.119 220.319 744.181 219.994 741.271 220.28H716.534V288.073H727.455V229.525H740.991C742.541 229.383 744.105 229.565 745.581 230.062C747.057 230.558 748.413 231.357 749.563 232.407C750.713 233.457 751.632 234.735 752.261 236.16C752.889 237.585 753.214 239.126 753.214 240.683C753.214 242.241 752.889 243.782 752.261 245.207C751.632 246.632 750.713 247.91 749.563 248.96C748.413 250.01 747.057 250.809 745.581 251.305C744.105 251.801 742.541 251.984 740.991 251.842H739.871V261.18L759.193 287.419H771.609L751.259 259.779Z" fill="#F59115"/>
<path d="M814.829 218.786H811.095L781.224 287.7H792.799L797.653 276.401L801.573 267.063L812.962 239.049L824.257 267.063L828.177 276.401L832.938 287.7H844.7L814.829 218.786Z" fill="#F59115"/>
<path d="M861.688 219.907H872.517V277.895H903.508V287.233H861.688V219.907Z" fill="#F59115"/>
<path d="M923.578 268.277C925.356 271.473 927.935 274.152 931.061 276.051C934.186 277.95 937.752 279.004 941.407 279.109C948.315 279.109 953.076 275.374 953.076 269.771C953.076 264.168 950.182 262.954 943.088 259.686L935.62 256.138C925.725 251.655 919.844 246.8 919.844 237.462C919.934 234.81 920.566 232.204 921.701 229.805C922.836 227.407 924.451 225.267 926.445 223.517C928.44 221.767 930.771 220.444 933.297 219.63C935.822 218.817 938.487 218.529 941.127 218.786C945.53 218.691 949.879 219.764 953.732 221.896C957.586 224.028 960.805 227.144 963.064 230.925L955.409 236.808C953.949 234.315 951.863 232.245 949.358 230.804C946.854 229.363 944.017 228.6 941.127 228.591C935.433 228.591 930.859 231.392 930.859 236.808C930.859 242.224 933.66 243.065 940.194 246.146L947.755 249.601C958.77 254.644 963.997 259.966 963.997 268.93C963.899 271.744 963.221 274.507 962.005 277.046C960.79 279.586 959.063 281.846 956.934 283.687C954.804 285.528 952.318 286.909 949.63 287.744C946.942 288.579 944.111 288.85 941.314 288.54C936.123 288.643 931.001 287.334 926.497 284.752C921.992 282.17 918.273 278.412 915.737 273.88L923.578 268.277Z" fill="#F59115"/>
<path d="M329.889 165H274.908V220H329.889V165Z" fill="#F59115"/>
<path d="M219.926 55H164.945V110H219.926V55Z" fill="#F59115"/>
<path d="M274.908 110H219.926V165H274.908V110Z" fill="#F59115"/>
<path d="M109.963 165H54.9819V220H109.963V165Z" fill="#F59115"/>
<path d="M164.945 110H109.963V165H164.945V110Z" fill="#F59115"/>
<path d="M219.926 275H164.945V330H219.926V275Z" fill="#F59115"/>
<path d="M274.908 220H219.926V275H274.908V220Z" fill="#F59115"/>
<path d="M164.945 220H109.963V275H164.945V220Z" fill="#F59115"/>
<path d="M384.871 165H329.89V220H384.871V165Z" fill="#7E062A"/>
<path d="M219.926 0H164.945V55H219.926V0Z" fill="#7E062A"/>
<path d="M329.889 110H274.908V165H329.889V110Z" fill="#7E062A"/>
<path d="M274.908 55H219.926V110H274.908V55Z" fill="#7E062A"/>
<path d="M54.9815 165H0V220H54.9815V165Z" fill="#7E062A"/>
<path d="M109.963 110H54.9819V165H109.963V110Z" fill="#7E062A"/>
<path d="M164.945 55H109.963V110H164.945V55Z" fill="#7E062A"/>
<path d="M219.926 330H164.945V385H219.926V330Z" fill="#7E062A"/>
<path d="M329.889 220H274.908V275H329.889V220Z" fill="#7E062A"/>
<path d="M274.908 275H219.926V330H274.908V275Z" fill="#7E062A"/>
<path d="M109.963 220H54.9819V275H109.963V220Z" fill="#7E062A"/>
<path d="M164.945 275H109.963V330H164.945V275Z" fill="#7E062A"/>
<path d="M274.908 165H219.926V220H274.908V165Z" fill="#FFDE24"/>
<path d="M219.926 110H164.945V165H219.926V110Z" fill="#FFDE24"/>
<path d="M164.945 165H109.963V220H164.945V165Z" fill="#FFDE24"/>
<path d="M219.926 220H164.945V275H219.926V220Z" fill="#FFDE24"/>
</svg>
